# xmcd
#
# Track frame offsets:
#	150
#	15295
#	30772
#	52360
#	72052
#	87752
#	104757
#	118722
#	131452
#	149980
#	166005
#	177285
#	193730
#	205612
#	218097
#	235450
#	247687
#	266320
#	284690
#	299620
#	310715
#	324555
#	335480
#
# Disc length: 4676
#
# Revision: 2
# Processed by: cddbd v1.5.1PL0 Copyright (c) Steve Scherf et al.
# Submitted via: EasyCDDAExtractor 5.1.0
# Normalized: r1:DSETVAR1
#
DISCID=55124217
DTITLE=Various Artist - Boogie Beat (Shag Yer Blooz Away)
DYEAR=1996
DGENRE=Beach
TTITLE0=Percy Milem - I Slipped A Little
TTITLE1=Joyce Lawson - Love Uprising
TTITLE2=Joe Simon - Happy Birthday Baby
TTITLE3=Magic Slim and The Teardrops - Mustang Sally
TTITLE4=Greg 'Fingers' Taylor - Standing At The Crossroads Again
TTITLE5=Johnny Adams - If Ever I Had A Good Thing
TTITLE6=Irma Thomas - Whats A Matter Baby
TTITLE7=Chuck Jackson - Lonely Teardrops
TTITLE8=Al Wilson - You Got It
TTITLE9=Ronnie Williams - Dreamin
TTITLE10=Dells - Time Makes You Change
TTITLE11=Lew Kirton - Heaven In The Afternoon
TTITLE12=Fat City - Just A Little Bit
TTITLE13=Pelicans - I Didn't Know
TTITLE14=Brook Benton - Can't Take My Eyes Off You
TTITLE15=Candi Staton - Count On Me [Short Version]
TTITLE16=Duane Evans and The Ebs Allstars - Saturday Night Fish Fry
TTITLE17=Greg 'Fingers' Taylor - Big Top Hat
TTITLE18=Al Wilson - I'm A Weak Man
TTITLE19=Irma Thomas - I Can't Help Myself
TTITLE20=Roy Head - I Want To Do Everything For You
TTITLE21=Jackie Wilson - Call Her Up
TTITLE22=Troy Shondell - If I Didn't Care
EXTD=
EXTT0=
EXTT1=
EXTT2=
EXTT3=
EXTT4=
EXTT5=
EXTT6=
EXTT7=
EXTT8=
EXTT9=
EXTT10=
EXTT11=
EXTT12=
EXTT13=
EXTT14=
EXTT15=
EXTT16=
EXTT17=
EXTT18=
EXTT19=
EXTT20=
EXTT21=
EXTT22=
PLAYORDER=
